HIERARCHY
ROOT joint_0
{
	OFFSET 0.000000 0.000000 0.000000
	CHANNELS 6 Xposition Yposition Zposition Zrotation Yrotation Xrotation 
	JOINT joint_1
	{
		OFFSET -0.613770 -1.125488 108.300049
		CHANNELS 3 Zrotation Yrotation Xrotation
		JOINT joint_2
		{
			OFFSET -10.925537 -0.900513 98.259033
			CHANNELS 3 Zrotation Yrotation Xrotation
			JOINT joint_3
			{
				OFFSET -11.287842 0.313599 98.110962
				CHANNELS 3 Zrotation Yrotation Xrotation
				JOINT joint_4
				{
					OFFSET -2.124268 2.484680 136.491943
					CHANNELS 3 Zrotation Yrotation Xrotation
					JOINT joint_5
					{
						OFFSET 16.640869 1.801270 81.862061
						CHANNELS 3 Zrotation Yrotation Xrotation
						End Site
						{
							OFFSET 0.000000 0.000000 0.000000
						}
					}
				}
				JOINT joint_6
				{
					OFFSET 0.447998 -28.248108 77.258057
					CHANNELS 3 Zrotation Yrotation Xrotation
					JOINT joint_7
					{
						OFFSET 7.918701 -130.256348 -24.086060
						CHANNELS 3 Zrotation Yrotation Xrotation
						JOINT joint_8
						{
							OFFSET 62.431885 -29.384277 -258.572021
							CHANNELS 3 Zrotation Yrotation Xrotation
							JOINT joint_9
							{
								OFFSET 53.743164 -21.907532 -238.024963
								CHANNELS 3 Zrotation Yrotation Xrotation
								End Site
								{
									OFFSET 0.000000 0.000000 0.000000
								}
							}
						}
					}
				}
				JOINT joint_10
				{
					OFFSET -2.846924 31.052063 76.130981
					CHANNELS 3 Zrotation Yrotation Xrotation
					JOINT joint_11
					{
						OFFSET 9.073730 131.055603 -18.752930
						CHANNELS 3 Zrotation Yrotation Xrotation
						JOINT joint_12
						{
							OFFSET 52.981201 29.883301 -260.613037
							CHANNELS 3 Zrotation Yrotation Xrotation
							JOINT joint_13
							{
								OFFSET 62.237793 15.935547 -236.423035
								CHANNELS 3 Zrotation Yrotation Xrotation
								End Site
								{
									OFFSET 0.000000 0.000000 0.000000
								}
							}
						}
					}
				}
			}
		}
	}
	JOINT joint_14
	{
		OFFSET 22.046143 -72.816772 -98.122925
		CHANNELS 3 Zrotation Yrotation Xrotation
		JOINT joint_15
		{
			OFFSET -23.673828 -54.692932 -469.927032
			CHANNELS 3 Zrotation Yrotation Xrotation
			JOINT joint_16
			{
				OFFSET -34.875244 -46.505249 -395.890999
				CHANNELS 3 Zrotation Yrotation Xrotation
				JOINT joint_17
				{
					OFFSET 168.486328 14.224182 -74.182999
					CHANNELS 3 Zrotation Yrotation Xrotation
					End Site
					{
						OFFSET 0.000000 0.000000 0.000000
					}
				}
			}
		}
	}
	JOINT joint_18
	{
		OFFSET -1.731934 82.408569 -92.846924
		CHANNELS 3 Zrotation Yrotation Xrotation
		JOINT joint_19
		{
			OFFSET -6.908936 32.203369 -472.535034
			CHANNELS 3 Zrotation Yrotation Xrotation
			JOINT joint_20
			{
				OFFSET -13.963135 23.196533 -399.207993
				CHANNELS 3 Zrotation Yrotation Xrotation
				JOINT joint_21
				{
					OFFSET 168.417725 19.834229 -73.041004
					CHANNELS 3 Zrotation Yrotation Xrotation
					End Site
					{
						OFFSET 0.000000 0.000000 0.000000
					}
				}
			}
		}
	}
}
MOTION
Frames: 16
Frame Time: 0.016667
-2893.892090 1077.644775 1050.430054 4.328956 -1.140439 0.283930 4.176988 8.448156 0.846731 2.109822 -1.184634 -0.248186 2.020645 1.711171 0.092866 -0.032828 -4.351411 0.064051 0.000000 0.000000 0.000000 8.803455 0.302454 -0.277628 -0.387427 2.109055 0.101951 -1.385044 0.764328 -4.963144 0.000000 0.000000 0.000000 2.101505 -2.053819 -3.498771 -0.356924 -2.646864 -0.397940 0.227431 1.952418 0.259348 0.000000 0.000000 0.000000 -2.644348 -28.586989 2.907878 -6.809690 45.313540 -0.094591 -1.997082 -2.853648 -0.534267 0.000000 0.000000 0.000000 0.410994 4.634941 -1.717011 0.039840 12.404009 -2.088144 -0.878371 -10.828832 0.891877 0.000000 0.000000 0.000000 
-2875.959961 1078.173340 1052.587036 5.230654 -0.217177 0.336480 3.595966 7.514561 0.765541 1.950634 -1.067169 -0.227132 1.891541 1.539931 0.089237 -0.010760 -4.442839 -0.019553 0.000000 0.000000 0.000000 8.447036 0.019250 0.144691 -0.431662 1.723080 -0.483461 -1.171703 0.443756 -4.382363 0.000000 0.000000 0.000000 1.917841 -1.605606 -3.179366 -0.319865 -2.113998 -0.595812 0.249821 1.722596 0.413008 0.000000 0.000000 0.000000 -2.929261 -29.624968 3.197450 -6.627844 40.789891 -0.793502 -2.039590 -2.815683 -0.550252 0.000000 0.000000 0.000000 0.033005 4.265670 -1.644224 -0.122704 12.914991 -2.113754 -1.005221 -10.010062 0.748794 0.000000 0.000000 0.000000 
-2857.515381 1078.225220 1054.796997 6.166499 0.664355 0.402081 3.050328 6.668444 0.747859 1.784150 -0.941150 -0.229211 1.758929 1.402666 0.078705 0.013330 -4.530247 -0.113554 0.000000 0.000000 0.000000 8.061860 -0.213728 0.508004 -0.453230 1.389906 -0.901286 -0.953776 -0.112929 -3.860100 0.000000 0.000000 0.000000 1.761267 -1.256072 -2.889474 -0.282770 -1.696970 -0.665069 0.255048 1.602808 0.468279 0.000000 0.000000 0.000000 -3.107109 -30.274878 3.382691 -6.282502 35.438738 -1.252022 -1.938541 -3.152315 -0.481234 0.000000 0.000000 0.000000 -0.359090 3.870770 -1.494455 -0.289830 13.558876 -2.195305 -1.128425 -9.014038 0.587707 0.000000 0.000000 0.000000 
-2838.484863 1077.925293 1057.088989 7.207514 1.473540 0.535510 2.520329 5.951565 0.683011 1.576530 -0.857132 -0.196264 1.569716 1.279572 0.074522 0.040569 -4.598976 -0.223740 0.000000 0.000000 0.000000 7.674343 -0.409428 0.846865 -0.470523 1.099032 -1.230528 -0.736807 -0.796662 -3.359823 0.000000 0.000000 0.000000 1.617610 -0.944307 -2.615649 -0.242976 -1.326844 -0.654060 0.245048 1.523077 0.452631 0.000000 0.000000 0.000000 -3.206124 -30.427256 3.407236 -5.758207 29.065236 -1.598534 -1.895021 -3.185043 -0.461108 0.000000 0.000000 0.000000 -0.783692 3.460598 -1.340747 -0.488599 14.359904 -2.300718 -1.268352 -7.802083 0.396789 0.000000 0.000000 0.000000 
-2818.730713 1077.513428 1059.076050 8.243694 2.095057 0.714166 2.080693 5.397099 0.630109 1.378690 -0.824003 -0.140266 1.379060 1.175578 0.086951 0.075242 -4.602773 -0.374658 0.000000 0.000000 0.000000 7.342197 -0.549135 1.113108 -0.498993 0.881391 -1.518244 -0.529697 -1.462688 -2.850557 0.000000 0.000000 0.000000 1.540895 -0.646156 -2.424825 -0.193384 -0.992368 -0.554916 0.214602 1.399860 0.370168 0.000000 0.000000 0.000000 -3.125568 -30.173829 3.168383 -5.039842 22.834942 -1.589523 -1.772481 -2.954337 -0.429820 0.000000 0.000000 0.000000 -1.190628 3.124606 -1.171383 -0.688306 15.425275 -2.465333 -1.391111 -6.457701 0.200321 0.000000 0.000000 0.000000 
-2798.180664 1077.082520 1060.805054 8.994545 2.600447 0.789686 1.795874 4.820537 0.866653 1.301356 -0.747405 -0.194008 1.338673 1.095693 0.113775 0.120409 -4.527874 -0.585289 0.000000 0.000000 0.000000 7.118003 -0.607888 1.273181 -0.548741 0.773521 -1.794283 -0.321860 -2.121784 -2.303348 0.000000 0.000000 0.000000 1.553407 -0.367209 -2.368689 -0.130796 -0.707954 -0.343435 0.159091 1.233007 0.204545 0.000000 0.000000 0.000000 -2.618111 -29.654506 2.736047 -3.917075 16.982250 -1.018800 -1.208561 -3.259536 -0.178699 0.000000 0.000000 0.000000 -1.487668 2.869843 -0.860216 -0.787059 16.669978 -2.723808 -1.394802 -4.977839 0.038800 0.000000 0.000000 0.000000 
-2776.908447 1076.540771 1062.227051 9.640833 2.960936 0.842367 1.594646 4.322242 1.213269 1.277619 -0.680900 -0.279675 1.359235 1.037526 0.152436 0.172029 -4.385776 -0.832945 0.000000 0.000000 0.000000 6.950787 -0.610090 1.361227 -0.608171 0.738646 -2.036846 -0.122199 -2.772414 -1.757389 0.000000 0.000000 0.000000 1.629301 -0.105647 -2.390835 -0.057733 -0.462299 -0.034728 0.080768 1.025991 -0.032931 0.000000 0.000000 0.000000 -1.909892 -28.799835 2.175018 -2.604787 11.230194 -0.338227 -0.561219 -3.721729 0.116929 0.000000 0.000000 0.000000 -1.756214 2.666966 -0.483327 -0.851928 18.146120 -3.053909 -1.335766 -3.298671 -0.117519 0.000000 0.000000 0.000000 
-2754.994873 1075.847900 1062.816040 10.413098 3.051614 1.034852 1.411524 4.072309 1.327216 1.226528 -0.710503 -0.247909 1.317281 1.009424 0.195218 0.225190 -4.175230 -1.087873 0.000000 0.000000 0.000000 6.729823 -0.611776 1.431097 -0.652349 0.692819 -2.218104 0.037768 -3.248695 -1.287603 0.000000 0.000000 0.000000 1.733098 0.168762 -2.404040 0.023358 -0.209730 0.333331 -0.017541 0.701223 -0.301390 0.000000 0.000000 0.000000 -1.522316 -27.807476 1.653875 -1.807293 6.741589 -0.060626 -0.407185 -3.780083 0.184273 0.000000 0.000000 0.000000 -2.116818 2.457043 -0.184831 -0.983878 20.131092 -3.462915 -1.303003 -1.405509 -0.304576 0.000000 0.000000 0.000000 
-2732.350830 1075.093872 1062.689941 11.197367 2.906563 1.295095 1.260264 3.954237 1.381052 1.191333 -0.771557 -0.209397 1.284776 1.022251 0.230833 0.280162 -3.887496 -1.349091 0.000000 0.000000 0.000000 6.387347 -0.632723 1.524038 -0.675397 0.599260 -2.363227 0.151449 -3.453344 -0.903638 0.000000 0.000000 0.000000 1.857859 0.461711 -2.420096 0.114590 0.053208 0.789199 -0.143218 0.225259 -0.608281 0.000000 0.000000 0.000000 -1.646548 -26.912366 1.406366 -1.891352 4.284119 -0.078704 -0.834624 -4.160860 0.056036 0.000000 0.000000 0.000000 -2.553588 2.196060 0.070588 -1.157222 22.618059 -3.926304 -1.252121 0.966809 -0.534790 0.000000 0.000000 0.000000 
-2709.065430 1074.188721 1061.729980 11.814433 2.611149 1.487901 1.163607 3.840591 1.589696 1.231550 -0.787985 -0.263914 1.352883 1.053214 0.259524 0.333932 -3.524558 -1.608052 0.000000 0.000000 0.000000 5.989647 -0.650043 1.591924 -0.675758 0.497557 -2.440439 0.232772 -3.480777 -0.591106 0.000000 0.000000 0.000000 2.011682 0.766404 -2.416029 0.204090 0.320570 1.306194 -0.296590 -0.363652 -0.954995 0.000000 0.000000 0.000000 -1.971529 -26.119698 1.458719 -2.474582 3.402529 -0.130029 -1.466747 -5.090588 -0.103624 0.000000 0.000000 0.000000 -3.017597 1.871691 0.448145 -1.311356 25.501840 -4.543625 -1.133310 3.771628 -0.784231 0.000000 0.000000 0.000000 
-2685.492188 1072.819946 1059.043945 12.282804 2.172282 1.621156 1.091915 3.774165 1.795446 1.329977 -0.765613 -0.318627 1.487162 1.053361 0.289648 0.378388 -3.103233 -1.831397 0.000000 0.000000 0.000000 5.625095 -0.655416 1.552336 -0.631592 0.418183 -2.334556 0.283896 -3.447568 -0.385029 0.000000 0.000000 0.000000 2.178431 1.096797 -2.245529 0.265176 0.628881 1.754969 -0.464176 -1.041516 -1.289125 0.000000 0.000000 0.000000 -2.222299 -25.455663 1.747706 -3.161137 3.802774 -0.299209 -2.078098 -5.601829 -0.294824 0.000000 0.000000 0.000000 -3.552897 1.418256 1.062885 -1.459736 28.925858 -5.536678 -0.992071 6.668430 -1.032713 0.000000 0.000000 0.000000 
-2661.306885 1070.768311 1053.746948 12.711224 1.503177 1.725385 1.006333 3.781758 1.931497 1.454620 -0.704673 -0.359172 1.651040 0.976153 0.326120 0.406762 -2.572477 -1.987403 0.000000 0.000000 0.000000 5.275286 -0.607145 1.277557 -0.493012 0.404131 -1.831272 0.287089 -3.362572 -0.367775 0.000000 0.000000 0.000000 2.347986 1.496970 -1.727059 0.271845 1.046588 2.040150 -0.658521 -1.853782 -1.626271 0.000000 0.000000 0.000000 -2.389732 -24.812767 2.299168 -3.939027 5.542195 -0.671599 -2.771720 -4.755558 -0.639583 0.000000 0.000000 0.000000 -4.286948 0.896491 2.000659 -1.717763 32.947223 -7.059754 -0.960335 10.200180 -1.395271 0.000000 0.000000 0.000000 
-2636.833740 1068.253174 1046.723999 13.146163 0.655945 1.741966 0.890606 3.903071 2.119173 1.589775 -0.631648 -0.424011 1.832800 0.855864 0.369783 0.424148 -1.992466 -2.100827 0.000000 0.000000 0.000000 4.962646 -0.550138 0.893485 -0.309911 0.412848 -1.145966 0.260782 -3.213543 -0.454432 0.000000 0.000000 0.000000 2.525343 1.918745 -1.029054 0.237956 1.504525 2.257348 -0.874056 -2.755659 -1.952047 0.000000 0.000000 0.000000 -2.601744 -24.220679 3.093616 -4.904817 8.401946 -1.209138 -3.620650 -3.056585 -1.120946 0.000000 0.000000 0.000000 -5.164124 0.313521 3.213045 -2.061506 37.294765 -8.933430 -0.980923 14.542397 -1.891444 0.000000 0.000000 0.000000 
-2613.397949 1065.620483 1039.741943 13.499466 -0.125312 1.536038 0.732590 4.149583 2.526671 1.758040 -0.580362 -0.522726 2.062016 0.786848 0.417574 0.442169 -1.541015 -2.224715 0.000000 0.000000 0.000000 4.827696 -0.602631 0.709384 -0.210777 0.343320 -0.818429 0.261688 -3.088718 -0.432488 0.000000 0.000000 0.000000 2.714834 2.241185 -0.551383 0.212589 1.834889 2.562294 -1.060268 -3.596818 -2.157628 0.000000 0.000000 0.000000 -2.738747 -23.963739 4.020806 -5.822046 11.819910 -1.812730 -4.316112 -1.806108 -1.503964 0.000000 0.000000 0.000000 -5.944049 -0.531141 4.647590 -2.264070 41.844087 -10.843778 -0.690210 18.387863 -2.253602 0.000000 0.000000 0.000000 
-2591.659424 1062.851440 1033.087036 13.677906 -0.715384 0.967182 0.476927 4.514212 3.354932 2.011341 -0.567049 -0.683930 2.417505 0.824808 0.460826 0.476647 -1.307858 -2.437301 0.000000 0.000000 0.000000 5.028430 -0.811038 0.886084 -0.278500 0.173156 -1.175777 0.343807 -3.093551 -0.113764 0.000000 0.000000 0.000000 2.975316 2.397904 -0.545880 0.243306 1.924529 3.149684 -1.223263 -4.347771 -2.289004 0.000000 0.000000 0.000000 -2.656641 -24.435859 5.122929 -6.586234 16.194287 -2.436232 -4.633229 -1.441139 -1.659224 0.000000 0.000000 0.000000 -6.537267 -1.822994 6.461843 -2.165993 47.039462 -12.744675 0.387235 21.095771 -2.189249 0.000000 0.000000 0.000000 
-2570.958252 1059.964966 1026.472046 13.854873 -1.273289 0.198479 0.087901 5.093211 4.373330 2.305478 -0.625586 -0.863810 2.842999 0.927158 0.503885 0.516424 -1.196675 -2.678187 0.000000 0.000000 0.000000 5.397665 -1.127686 1.255333 -0.437564 -0.073232 -1.896217 0.453141 -3.133268 0.313883 0.000000 0.000000 0.000000 3.254635 2.461454 -0.777775 0.298773 1.887875 3.812116 -1.352133 -5.045130 -2.301222 0.000000 0.000000 0.000000 -2.520262 -25.187070 6.294446 -7.337366 21.115367 -2.993714 -4.813569 -1.238169 -1.743517 0.000000 0.000000 0.000000 -7.148070 -3.311468 8.474597 -2.049587 52.512619 -14.578523 1.926914 23.096929 -1.720848 0.000000 0.000000 0.000000 
